%TF.GenerationSoftware,KiCad,Pcbnew,7.0.2*%
%TF.CreationDate,2023-11-16T12:36:53+05:30*%
%TF.ProjectId,OHM3000_V1.1_ESP,4f484d33-3030-4305-9f56-312e315f4553,rev?*%
%TF.SameCoordinates,Original*%
%TF.FileFunction,Paste,Bot*%
%TF.FilePolarity,Positive*%
%FSLAX46Y46*%
G04 Gerber Fmt 4.6, Leading zero omitted, Abs format (unit mm)*
G04 Created by KiCad (PCBNEW 7.0.2) date 2023-11-16 12:36:53*
%MOMM*%
%LPD*%
G01*
G04 APERTURE LIST*
G04 Aperture macros list*
%AMRoundRect*
0 Rectangle with rounded corners*
0 $1 Rounding radius*
0 $2 $3 $4 $5 $6 $7 $8 $9 X,Y pos of 4 corners*
0 Add a 4 corners polygon primitive as box body*
4,1,4,$2,$3,$4,$5,$6,$7,$8,$9,$2,$3,0*
0 Add four circle primitives for the rounded corners*
1,1,$1+$1,$2,$3*
1,1,$1+$1,$4,$5*
1,1,$1+$1,$6,$7*
1,1,$1+$1,$8,$9*
0 Add four rect primitives between the rounded corners*
20,1,$1+$1,$2,$3,$4,$5,0*
20,1,$1+$1,$4,$5,$6,$7,0*
20,1,$1+$1,$6,$7,$8,$9,0*
20,1,$1+$1,$8,$9,$2,$3,0*%
G04 Aperture macros list end*
%ADD10RoundRect,0.249999X-0.650001X0.325001X-0.650001X-0.325001X0.650001X-0.325001X0.650001X0.325001X0*%
%ADD11RoundRect,0.249999X0.650001X-0.325001X0.650001X0.325001X-0.650001X0.325001X-0.650001X-0.325001X0*%
%ADD12RoundRect,0.249999X0.325001X0.650001X-0.325001X0.650001X-0.325001X-0.650001X0.325001X-0.650001X0*%
%ADD13RoundRect,0.249999X-0.325001X-0.650001X0.325001X-0.650001X0.325001X0.650001X-0.325001X0.650001X0*%
%ADD14RoundRect,0.249998X0.312502X0.625002X-0.312502X0.625002X-0.312502X-0.625002X0.312502X-0.625002X0*%
%ADD15RoundRect,0.249998X-0.312502X-0.625002X0.312502X-0.625002X0.312502X0.625002X-0.312502X0.625002X0*%
%ADD16RoundRect,0.249998X-0.625002X0.312502X-0.625002X-0.312502X0.625002X-0.312502X0.625002X0.312502X0*%
%ADD17RoundRect,0.249998X0.625002X-0.312502X0.625002X0.312502X-0.625002X0.312502X-0.625002X-0.312502X0*%
G04 APERTURE END LIST*
D10*
%TO.C,DC15*%
X35800000Y8475000D03*
X35800000Y5525000D03*
%TD*%
%TO.C,DC16*%
X45800000Y8475000D03*
X45800000Y5525000D03*
%TD*%
%TO.C,DC17*%
X55800000Y8475000D03*
X55800000Y5525000D03*
%TD*%
%TO.C,DC18*%
X65800000Y8475000D03*
X65800000Y5525000D03*
%TD*%
%TO.C,DC19*%
X75800000Y8475000D03*
X75800000Y5525000D03*
%TD*%
%TO.C,DC20*%
X85800000Y8475000D03*
X85800000Y5525000D03*
%TD*%
%TO.C,DC21*%
X95800000Y8475000D03*
X95800000Y5525000D03*
%TD*%
%TO.C,DC22*%
X65100000Y21625000D03*
X65100000Y18675000D03*
%TD*%
%TO.C,DC25*%
X41250000Y20025000D03*
X41250000Y17075000D03*
%TD*%
%TO.C,DC28*%
X71250000Y20025000D03*
X71250000Y17075000D03*
%TD*%
%TO.C,DC29*%
X81250000Y20025000D03*
X81250000Y17075000D03*
%TD*%
%TO.C,DC30*%
X91250000Y20025000D03*
X91250000Y17075000D03*
%TD*%
%TO.C,DC31*%
X101250000Y20025000D03*
X101250000Y17075000D03*
%TD*%
D11*
%TO.C,DC32*%
X86600000Y20150000D03*
X86600000Y23100000D03*
%TD*%
D12*
%TO.C,C1*%
X46468840Y26781760D03*
X43518840Y26781760D03*
%TD*%
%TO.C,C2*%
X46468840Y38125400D03*
X43518840Y38125400D03*
%TD*%
D13*
%TO.C,C3*%
X37361880Y38125400D03*
X40311880Y38125400D03*
%TD*%
%TO.C,C4*%
X37361880Y26781760D03*
X40311880Y26781760D03*
%TD*%
D12*
%TO.C,C5*%
X33468840Y26781760D03*
X30518840Y26781760D03*
%TD*%
%TO.C,C6*%
X33468840Y38125400D03*
X30518840Y38125400D03*
%TD*%
D13*
%TO.C,C7*%
X24361880Y38125400D03*
X27311880Y38125400D03*
%TD*%
%TO.C,C8*%
X24361880Y26781760D03*
X27311880Y26781760D03*
%TD*%
D12*
%TO.C,C9*%
X20468840Y26781760D03*
X17518840Y26781760D03*
%TD*%
D13*
%TO.C,C11*%
X11361880Y38125400D03*
X14311880Y38125400D03*
%TD*%
%TO.C,C12*%
X11361880Y26781760D03*
X14311880Y26781760D03*
%TD*%
D12*
%TO.C,C13*%
X7468840Y26781760D03*
X4518840Y26781760D03*
%TD*%
%TO.C,C14*%
X7468840Y38125400D03*
X4518840Y38125400D03*
%TD*%
D13*
%TO.C,C15*%
X-1638120Y38125400D03*
X1311880Y38125400D03*
%TD*%
%TO.C,C16*%
X-1638120Y26781760D03*
X1311880Y26781760D03*
%TD*%
D12*
%TO.C,C17*%
X-5531160Y26781760D03*
X-8481160Y26781760D03*
%TD*%
%TO.C,C18*%
X-5531160Y38125400D03*
X-8481160Y38125400D03*
%TD*%
D13*
%TO.C,C19*%
X-14638120Y38125400D03*
X-11688120Y38125400D03*
%TD*%
%TO.C,C20*%
X-14638120Y26781760D03*
X-11688120Y26781760D03*
%TD*%
D12*
%TO.C,C21*%
X-18531160Y26781760D03*
X-21481160Y26781760D03*
%TD*%
%TO.C,C22*%
X-18531160Y38125400D03*
X-21481160Y38125400D03*
%TD*%
D13*
%TO.C,C23*%
X-27638120Y38125400D03*
X-24688120Y38125400D03*
%TD*%
%TO.C,C24*%
X-27638120Y26781760D03*
X-24688120Y26781760D03*
%TD*%
D12*
%TO.C,C25*%
X-31531160Y26781760D03*
X-34481160Y26781760D03*
%TD*%
%TO.C,C26*%
X-31531160Y38125400D03*
X-34481160Y38125400D03*
%TD*%
D13*
%TO.C,C27*%
X-40638120Y38125400D03*
X-37688120Y38125400D03*
%TD*%
%TO.C,C28*%
X-40638120Y26781760D03*
X-37688120Y26781760D03*
%TD*%
%TO.C,C29*%
X90361880Y38125400D03*
X93311880Y38125400D03*
%TD*%
%TO.C,C30*%
X90361880Y26781760D03*
X93311880Y26781760D03*
%TD*%
D12*
%TO.C,C31*%
X99468840Y26781760D03*
X96518840Y26781760D03*
%TD*%
%TO.C,C32*%
X99468840Y38125400D03*
X96518840Y38125400D03*
%TD*%
D13*
%TO.C,C33*%
X103361880Y38125400D03*
X106311880Y38125400D03*
%TD*%
%TO.C,C34*%
X103361880Y26781760D03*
X106311880Y26781760D03*
%TD*%
D12*
%TO.C,C35*%
X112468840Y26781760D03*
X109518840Y26781760D03*
%TD*%
%TO.C,C36*%
X112468840Y38125400D03*
X109518840Y38125400D03*
%TD*%
D13*
%TO.C,C37*%
X116361880Y38125400D03*
X119311880Y38125400D03*
%TD*%
%TO.C,C38*%
X116361880Y26781760D03*
X119311880Y26781760D03*
%TD*%
D12*
%TO.C,C39*%
X125468840Y26781760D03*
X122518840Y26781760D03*
%TD*%
%TO.C,C40*%
X125468840Y38125400D03*
X122518840Y38125400D03*
%TD*%
D13*
%TO.C,C41*%
X129361880Y38125400D03*
X132311880Y38125400D03*
%TD*%
%TO.C,C42*%
X129361880Y26781760D03*
X132311880Y26781760D03*
%TD*%
D12*
%TO.C,C44*%
X138468840Y38125400D03*
X135518840Y38125400D03*
%TD*%
D13*
%TO.C,C45*%
X142361880Y38125400D03*
X145311880Y38125400D03*
%TD*%
%TO.C,C46*%
X142361880Y26781760D03*
X145311880Y26781760D03*
%TD*%
D12*
%TO.C,C47*%
X151468840Y26781760D03*
X148518840Y26781760D03*
%TD*%
%TO.C,C48*%
X151468840Y38125400D03*
X148518840Y38125400D03*
%TD*%
D13*
%TO.C,C49*%
X155361880Y38125400D03*
X158311880Y38125400D03*
%TD*%
%TO.C,C50*%
X155361880Y26781760D03*
X158311880Y26781760D03*
%TD*%
D12*
%TO.C,C51*%
X164468840Y26781760D03*
X161518840Y26781760D03*
%TD*%
%TO.C,C52*%
X164468840Y38125400D03*
X161518840Y38125400D03*
%TD*%
D13*
%TO.C,C53*%
X168361880Y38125400D03*
X171311880Y38125400D03*
%TD*%
%TO.C,C54*%
X168361880Y26781760D03*
X171311880Y26781760D03*
%TD*%
D12*
%TO.C,C55*%
X177468840Y26781760D03*
X174518840Y26781760D03*
%TD*%
%TO.C,C56*%
X177468840Y38125400D03*
X174518840Y38125400D03*
%TD*%
D13*
%TO.C,DC2*%
X33725000Y33725000D03*
X36675000Y33725000D03*
%TD*%
%TO.C,DC3*%
X20725000Y33725000D03*
X23675000Y33725000D03*
%TD*%
%TO.C,DC4*%
X7725000Y33725000D03*
X10675000Y33725000D03*
%TD*%
%TO.C,DC5*%
X-5275000Y33725000D03*
X-2325000Y33725000D03*
%TD*%
%TO.C,DC6*%
X-18275000Y33725000D03*
X-15325000Y33725000D03*
%TD*%
%TO.C,DC7*%
X-31275000Y33725000D03*
X-28325000Y33725000D03*
%TD*%
D12*
%TO.C,DC8*%
X89675000Y33725000D03*
X86725000Y33725000D03*
%TD*%
%TO.C,DC9*%
X102675000Y33725000D03*
X99725000Y33725000D03*
%TD*%
%TO.C,DC10*%
X115675000Y33725000D03*
X112725000Y33725000D03*
%TD*%
%TO.C,DC11*%
X128675000Y33725000D03*
X125725000Y33725000D03*
%TD*%
%TO.C,DC12*%
X141675000Y33725000D03*
X138725000Y33725000D03*
%TD*%
%TO.C,DC13*%
X154675000Y33725000D03*
X151725000Y33725000D03*
%TD*%
%TO.C,DC14*%
X167675000Y33725000D03*
X164725000Y33725000D03*
%TD*%
%TO.C,DC38*%
X-1450000Y47925000D03*
X-4400000Y47925000D03*
%TD*%
D13*
%TO.C,DC40*%
X107200000Y48900000D03*
X110150000Y48900000D03*
%TD*%
%TO.C,DC41*%
X127200000Y48900000D03*
X130150000Y48900000D03*
%TD*%
%TO.C,DC42*%
X147200000Y48900000D03*
X150150000Y48900000D03*
%TD*%
%TO.C,DC43*%
X91325000Y54175000D03*
X94275000Y54175000D03*
%TD*%
D14*
%TO.C,R65*%
X91562500Y63325000D03*
X88637500Y63325000D03*
%TD*%
D15*
%TO.C,R66*%
X83637500Y63325000D03*
X86562500Y63325000D03*
%TD*%
D16*
%TO.C,R69*%
X85550000Y41187500D03*
X85550000Y38262500D03*
%TD*%
%TO.C,R70*%
X82900000Y41187500D03*
X82900000Y38262500D03*
%TD*%
D12*
%TO.C,C43*%
X138468840Y26781760D03*
X135518840Y26781760D03*
%TD*%
%TO.C,C10*%
X20468840Y38125400D03*
X17518840Y38125400D03*
%TD*%
D10*
%TO.C,DC26*%
X51250000Y20025000D03*
X51250000Y17075000D03*
%TD*%
%TO.C,DC27*%
X61250000Y20025000D03*
X61250000Y17075000D03*
%TD*%
D13*
%TO.C,DC1*%
X46725000Y33725000D03*
X49675000Y33725000D03*
%TD*%
D12*
%TO.C,DC36*%
X31725000Y47900000D03*
X28775000Y47900000D03*
%TD*%
%TO.C,DC37*%
X18550000Y47925000D03*
X15600000Y47925000D03*
%TD*%
%TO.C,DC39*%
X-21450000Y47925000D03*
X-24400000Y47925000D03*
%TD*%
D10*
%TO.C,C57*%
X38875000Y58075000D03*
X38875000Y55125000D03*
%TD*%
%TO.C,C58*%
X85875000Y58075000D03*
X85875000Y55125000D03*
%TD*%
%TO.C,C59*%
X38875000Y52575000D03*
X38875000Y49625000D03*
%TD*%
%TO.C,C60*%
X85875000Y52575000D03*
X85875000Y49625000D03*
%TD*%
%TO.C,C61*%
X52875000Y52575000D03*
X52875000Y49625000D03*
%TD*%
%TO.C,C62*%
X99875000Y52575000D03*
X99875000Y49625000D03*
%TD*%
%TO.C,C63*%
X52875000Y58075000D03*
X52875000Y55125000D03*
%TD*%
%TO.C,C64*%
X99875000Y58075000D03*
X99875000Y55125000D03*
%TD*%
%TO.C,DC46*%
X81500000Y58700000D03*
X81500000Y55750000D03*
%TD*%
D13*
%TO.C,DC44*%
X44400000Y54175000D03*
X47350000Y54175000D03*
%TD*%
D11*
%TO.C,DC50*%
X123875000Y56375000D03*
X123875000Y59325000D03*
%TD*%
D17*
%TO.C,R73*%
X128385000Y79402500D03*
X128385000Y82327500D03*
%TD*%
M02*
