M48
; DRILL file {KiCad 7.0.2} date Thu Nov 16 12:32:57 2023
; FORMAT={-:-/ absolute / metric / decimal}
; #@! TF.CreationDate,2023-11-16T12:32:57+05:30
; #@! TF.GenerationSoftware,Kicad,Pcbnew,7.0.2
; #@! TF.FileFunction,MixedPlating,1,2
FMAT,2
METRIC
; #@! TA.AperFunction,Plated,PTH,ViaDrill
T1C0.300
; #@! TA.AperFunction,Plated,PTH,ViaDrill
T2C0.400
; #@! TA.AperFunction,Plated,PTH,ComponentDrill
T3C0.820
; #@! TA.AperFunction,Plated,PTH,ComponentDrill
T4C0.950
; #@! TA.AperFunction,Plated,PTH,ComponentDrill
T5C1.040
; #@! TA.AperFunction,Plated,PTH,ComponentDrill
T6C3.200
%
G90
G05
T1
X-40.925Y35.925
X-37.725Y30.425
X-37.375Y35.45
X-35.2Y35.4
X-34.469Y28.481
X-34.1Y39.75
X-33.14Y42.368
X-33.083Y43.442
X-32.1Y47.925
X-31.5Y36.05
X-31.475Y43.05
X-31.45Y44.475
X-31.25Y28.6
X-29.885Y41.95
X-29.225Y36.025
X-27.825Y36.1
X-27.7Y30.35
X-26.125Y38.55
X-25.425Y42.525
X-25.268Y44.475
X-24.7Y30.35
X-24.46Y34.315
X-23.997Y35.671
X-22.775Y45.15
X-22.435Y35.41
X-22.125Y43.775
X-21.525Y30.375
X-21.2Y50.525
X-20.106Y38.85
X-18.825Y30.275
X-18.475Y35.875
X-16.383Y40.005
X-15.475Y46.9
X-15.1Y43.15
X-14.95Y48.825
X-14.825Y36.2
X-14.775Y28.65
X-13.075Y38.2
X-11.65Y28.55
X-11.525Y46.475
X-11.5Y51.675
X-11.175Y35.35
X-9.9Y37.625
X-9.6Y33.175
X-8.825Y34.075
X-8.25Y28.35
X-7.65Y46.625
X-7.45Y36.7
X-6.3Y48.35
X-5.575Y28.475
X-5.475Y35.775
X-4.6Y23.775
X-3.325Y50.2
X-2.875Y43.825
X-2.675Y45.125
X-2.494Y19.218
X-2.225Y51.725
X-1.925Y35.8
X-1.91Y24.742
X-1.775Y44.475
X-0.025Y37.975
X1.5Y35.525
X1.675Y28.5
X3.661Y35.547
X4.0Y32.65
X4.3Y33.825
X4.825Y28.55
X6.096Y40.005
X6.85Y43.125
X7.456Y28.969
X7.6Y35.9
X8.512Y22.669
X11.05Y36.075
X11.087Y23.261
X12.287Y46.974
X14.299Y28.926
X14.475Y35.575
X14.475Y44.475
X16.528Y35.572
X17.425Y46.475
X17.65Y49.6
X17.675Y28.95
X17.739Y45.1
X17.825Y43.8
X18.525Y51.725
X20.328Y29.022
X20.55Y36.675
X21.6Y46.5
X21.75Y29.875
X22.025Y23.65
X23.325Y43.125
X23.775Y36.036
X24.338Y24.409
X25.675Y38.15
X26.55Y48.775
X27.05Y43.125
X27.125Y28.85
X27.522Y36.472
X28.448Y39.878
X28.575Y43.125
X29.15Y39.25
X29.775Y43.125
X29.893Y35.783
X29.925Y51.65
X30.531Y28.581
X32.575Y14.975
X32.825Y46.55
X33.3Y15.525
X33.304Y22.159
X33.379Y51.096
X33.456Y36.456
X33.456Y29.081
X33.475Y48.225
X33.704Y14.175
X33.925Y35.5
X34.25Y46.6
X34.3Y44.475
X34.575Y52.376
X34.815Y51.613
X35.45Y36.825
X36.115Y49.29
X36.134Y22.037
X37.075Y36.375
X37.3Y43.825
X37.374Y28.599
X37.403Y47.1
X38.075Y45.175
X38.213Y43.2
X39.03Y11.478
X39.225Y13.3
X39.6Y16.475
X39.825Y47.5
X40.075Y45.825
X40.225Y35.5
X40.288Y52.562
X40.312Y58.062
X40.336Y46.581
X40.45Y9.425
X40.5Y28.7
X40.825Y43.075
X40.95Y55.4
X41.2Y10.0
X41.735Y53.76
X42.6Y35.725
X43.18Y78.74
X43.275Y24.425
X43.275Y13.4
X43.531Y28.456
X43.921Y15.529
X43.929Y14.229
X44.884Y9.725
X45.658Y10.095
X45.85Y54.15
X45.975Y53.275
X46.525Y28.375
X46.55Y19.275
X46.6Y36.3
X46.8Y11.65
X46.925Y10.075
X47.521Y14.879
X47.7Y12.4
X48.26Y81.28
X48.275Y9.375
X48.525Y25.4
X48.775Y13.425
X48.85Y12.45
X49.225Y10.325
X49.275Y9.365
X49.358Y11.678
X50.287Y11.689
X50.8Y81.28
X51.425Y18.35
X51.525Y46.15
X52.083Y44.579
X52.175Y28.55
X52.176Y45.374
X53.125Y43.897
X53.15Y38.0
X53.5Y12.975
X53.893Y38.527
X53.957Y14.879
X54.008Y43.864
X54.15Y11.5
X54.175Y53.85
X54.3Y17.05
X54.375Y58.075
X54.45Y52.525
X54.501Y9.3
X54.7Y37.9
X54.754Y17.877
X54.816Y43.897
X55.225Y9.95
X56.4Y43.897
X57.121Y15.529
X57.171Y14.229
X57.275Y43.897
X57.325Y11.6
X57.484Y12.643
X58.0Y25.075
X58.156Y43.897
X58.85Y13.579
X59.05Y43.897
X59.05Y33.725
X59.309Y28.067
X59.563Y12.827
X59.855Y9.246
X59.858Y11.509
X60.833Y9.906
X60.96Y73.66
X60.96Y66.04
X60.96Y63.5
X61.45Y44.7
X61.775Y46.275
X62.525Y45.525
X62.992Y24.892
X63.5Y71.12
X63.854Y14.879
X66.779Y15.529
X67.075Y20.925
X67.304Y14.229
X67.65Y60.475
X67.975Y29.4
X68.6Y57.825
X68.95Y54.275
X69.425Y11.0
X69.45Y29.209
X69.5Y57.2
X69.524Y13.48
X69.575Y16.6
X69.7Y12.7
X71.12Y88.9
X71.12Y60.96
X71.167Y40.1
X71.45Y35.525
X71.772Y65.773
X72.45Y55.25
X72.875Y11.65
X73.15Y7.25
X73.406Y26.035
X73.825Y14.15
X73.925Y15.525
X74.3Y40.625
X76.175Y39.475
X76.2Y90.79
X76.2Y83.82
X77.046Y14.879
X77.05Y10.275
X77.704Y9.673
X78.65Y12.441
X78.74Y76.2
X78.85Y7.0
X79.05Y5.875
X79.5Y65.775
X79.5Y13.5
X79.875Y58.65
X80.137Y25.908
X80.675Y9.325
X80.675Y7.425
X81.072Y10.02
X82.8Y11.225
X83.5Y15.525
X84.188Y58.062
X84.204Y14.229
X84.25Y54.875
X84.45Y52.575
X84.475Y7.525
X85.975Y7.025
X86.25Y2.7
X86.254Y87.173
X86.36Y78.74
X86.879Y12.279
X86.971Y14.879
X87.025Y30.2
X87.075Y6.95
X87.662Y41.275
X87.672Y6.247
X87.9Y10.2
X88.25Y52.35
X88.4Y92.09
X89.375Y9.875
X89.5Y30.825
X89.825Y13.475
X89.95Y36.35
X90.05Y6.15
X90.45Y28.5
X91.89Y51.515
X92.559Y10.395
X93.215Y35.8
X93.25Y29.15
X93.525Y31.5
X93.65Y12.575
X94.196Y14.879
X95.3Y37.125
X96.45Y28.575
X96.929Y15.529
X97.029Y14.25
X97.352Y11.425
X97.475Y12.225
X97.7Y48.125
X97.7Y8.775
X98.0Y48.975
X98.188Y58.062
X98.375Y52.575
X98.6Y8.65
X99.5Y35.95
X99.725Y18.05
X100.125Y41.275
X100.915Y26.29
X102.25Y39.525
X102.896Y16.786
X103.175Y36.0
X103.225Y14.075
X103.4Y28.55
X104.475Y47.125
X104.525Y45.825
X104.775Y42.775
X105.75Y17.0
X105.875Y42.95
X106.1Y35.75
X106.299Y28.126
X107.2Y42.75
X107.422Y44.497
X107.775Y42.1
X107.875Y40.9
X108.775Y35.45
X109.25Y41.05
X109.5Y19.95
X109.55Y28.075
X110.125Y45.775
X110.696Y45.138
X110.85Y40.125
X111.325Y43.65
X112.125Y35.625
X112.225Y48.325
X112.45Y21.75
X112.55Y29.925
X113.875Y31.375
X114.15Y46.525
X114.362Y38.938
X114.525Y40.875
X114.824Y46.955
X115.275Y30.05
X115.325Y32.0
X115.575Y15.45
X115.975Y28.925
X116.175Y36.1
X116.3Y41.275
X116.85Y45.788
X117.5Y41.3
X117.8Y28.55
X119.049Y35.75
X119.125Y40.975
X119.325Y31.875
X119.6Y45.95
X119.875Y35.05
X120.797Y43.053
X121.15Y39.475
X121.425Y41.275
X121.675Y21.525
X121.8Y33.8
X122.097Y35.774
X122.575Y30.075
X122.6Y41.7
X124.006Y42.35
X124.35Y41.35
X124.525Y7.55
X124.8Y47.5
X125.525Y24.05
X125.525Y20.4
X125.55Y36.125
X125.65Y29.525
X125.9Y41.75
X127.2Y44.475
X128.0Y35.3
X129.125Y36.175
X129.325Y28.525
X130.448Y45.738
X130.45Y43.825
X130.591Y46.525
X131.6Y45.075
X131.925Y28.625
X132.311Y31.839
X132.35Y35.75
X133.525Y36.125
X133.8Y34.75
X134.225Y37.075
X134.275Y33.825
X134.275Y30.825
X135.035Y35.61
X135.25Y39.7
X135.5Y29.6
X136.15Y12.575
X136.5Y45.775
X136.825Y20.45
X138.025Y36.725
X138.137Y46.512
X138.425Y23.05
X138.5Y29.9
X138.6Y35.2
X139.875Y40.875
X141.15Y31.725
X141.2Y28.375
X142.2Y36.75
X142.6Y28.175
X144.1Y22.225
X144.225Y42.2
X144.475Y41.25
X144.825Y35.75
X145.375Y28.075
X145.525Y42.775
X147.35Y44.475
X147.675Y35.625
X148.5Y28.625
X149.575Y17.025
X149.9Y22.85
X150.525Y45.125
X150.825Y43.825
X151.456Y28.506
X151.6Y36.025
X152.125Y48.0
X154.3Y22.7
X155.125Y36.25
X155.275Y41.4
X155.35Y29.825
X155.55Y46.45
X157.85Y47.225
X158.25Y29.5
X158.45Y22.275
X158.625Y23.4
X158.7Y36.275
X160.975Y35.575
X161.875Y28.35
X164.4Y35.975
X164.45Y23.375
X164.475Y29.85
X165.275Y22.0
X166.85Y30.6
X168.125Y36.1
X168.375Y29.425
X170.945Y33.795
X171.275Y29.525
X171.675Y32.0
X171.825Y36.425
X172.922Y35.147
X173.075Y23.875
X173.95Y35.45
X174.8Y29.85
X177.375Y29.425
T2
X-40.995Y33.795
X-40.95Y30.25
X-35.2Y32.55
X-33.668Y30.543
X-32.323Y29.152
X-30.525Y35.4
X-29.075Y31.875
X-28.575Y46.85
X-27.25Y33.8
X-23.95Y19.3
X-21.85Y33.75
X-19.9Y48.625
X-18.825Y51.3
X-16.98Y33.795
X-16.575Y37.775
X-13.575Y46.7
X-11.83Y33.795
X-11.8Y30.05
X-11.8Y30.05
X-7.3Y18.975
X-4.75Y32.025
X-4.4Y35.425
X-4.075Y39.35
X-4.05Y33.8
X0.2Y48.65
X0.975Y20.55
X1.125Y33.475
X5.125Y47.35
X5.325Y21.55
X8.55Y35.425
X9.0Y33.825
X9.275Y39.0
X12.3Y20.025
X14.195Y33.795
X17.17Y33.795
X20.15Y48.475
X20.975Y35.35
X21.175Y31.975
X23.475Y31.825
X24.6Y33.75
X29.3Y33.225
X29.4Y28.65
X29.85Y30.475
X35.708Y10.114
X35.97Y30.045
X36.624Y31.7
X40.245Y33.795
X42.8Y50.025
X42.825Y16.7
X42.895Y33.795
X44.775Y51.725
X48.425Y17.4
X48.925Y35.925
X49.45Y16.725
X50.5Y55.675
X50.575Y48.65
X50.927Y27.813
X55.675Y34.825
X55.753Y31.75
X56.134Y28.067
X56.5Y9.9
X56.625Y30.35
X58.75Y20.575
X62.05Y33.5
X63.175Y16.775
X63.375Y18.025
X63.77Y90.61
X63.81Y87.63
X65.15Y24.275
X65.697Y10.058
X67.75Y35.65
X68.6Y19.3
X70.1Y38.0
X73.0Y16.65
X74.575Y53.6
X74.9Y18.95
X75.715Y10.04
X77.6Y26.9
X79.5Y18.8
X79.95Y56.45
X81.125Y38.475
X81.225Y30.575
X81.375Y18.275
X83.1Y16.925
X83.175Y36.875
X84.05Y64.825
X84.22Y87.57
X84.745Y30.945
X85.275Y24.25
X85.576Y10.468
X85.625Y36.95
X86.875Y18.85
X87.2Y25.8
X87.725Y48.225
X88.075Y24.175
X88.525Y32.075
X88.75Y53.2
X89.075Y35.425
X89.5Y18.8
X89.7Y31.875
X92.85Y54.4
X93.0Y16.775
X93.325Y33.7
X94.075Y51.5
X95.025Y47.125
X95.225Y22.25
X95.675Y10.05
X96.155Y33.795
X96.775Y18.875
X97.725Y53.8
X98.95Y19.1
X101.325Y9.475
X101.53Y33.795
X102.025Y54.65
X103.005Y42.995
X103.2Y66.025
X103.2Y62.725
X103.575Y29.975
X105.425Y29.975
X105.875Y48.375
X106.055Y34.455
X109.05Y33.4
X110.05Y22.7
X111.76Y67.876
X114.3Y78.74
X118.725Y48.625
X119.2Y33.795
X119.38Y86.36
X123.0Y23.15
X123.825Y13.175
X124.0Y37.975
X125.925Y35.25
X126.0Y48.225
X126.15Y31.925
X126.9Y63.85
X127.0Y78.74
X128.025Y39.55
X129.54Y68.58
X132.05Y23.825
X132.129Y33.854
X133.025Y49.15
X135.0Y22.675
X140.75Y46.3
X141.825Y49.825
X142.575Y23.325
X144.78Y83.82
X145.175Y47.125
X145.5Y32.775
X145.75Y48.275
X145.85Y29.425
X146.025Y34.975
X146.725Y33.9
X147.32Y73.66
X147.35Y41.75
X148.325Y52.675
X152.375Y32.2
X152.4Y60.96
X153.325Y48.475
X153.38Y33.795
X154.94Y88.1
X154.94Y53.34
X156.525Y21.725
X157.48Y81.28
X161.259Y33.134
X170.18Y83.82
X177.525Y35.825
T3
X131.54Y88.115
X131.54Y85.575
X131.54Y77.955
X131.54Y75.415
X131.54Y72.875
T4
X151.235Y94.14
X153.735Y94.14
X156.235Y94.14
X158.735Y94.14
X161.235Y94.14
X163.735Y94.14
X166.235Y94.14
X168.735Y94.14
X171.235Y94.14
X173.735Y94.14
T5
X68.58Y96.52
X68.58Y71.12
X71.12Y96.52
X71.12Y71.12
X73.66Y96.52
X73.66Y71.12
X76.2Y96.52
X76.2Y71.12
X78.74Y96.52
X78.74Y71.12
X81.28Y96.52
X81.28Y71.12
X83.82Y96.52
X83.82Y71.12
X86.36Y96.52
X86.36Y71.12
X88.9Y96.52
X88.9Y71.12
X91.44Y96.52
X91.44Y71.12
X93.98Y96.52
X93.98Y71.12
X96.52Y96.52
X96.52Y71.12
X99.06Y96.52
X99.06Y71.12
X101.6Y96.52
X101.6Y71.12
X104.14Y96.52
X104.14Y71.12
X106.68Y96.52
X106.68Y71.12
X109.22Y96.52
X109.22Y71.12
X111.76Y96.52
X111.76Y71.12
X114.3Y96.52
X114.3Y71.12
T6
X-40.54Y53.9
X-40.53Y-0.838
X30.25Y84.85
X181.5Y84.85
X181.5Y-0.78
T0
M30
