%TF.GenerationSoftware,KiCad,Pcbnew,7.0.2*%
%TF.CreationDate,2023-11-16T12:36:53+05:30*%
%TF.ProjectId,OHM3000_V1.1_ESP,4f484d33-3030-4305-9f56-312e315f4553,rev?*%
%TF.SameCoordinates,Original*%
%TF.FileFunction,Paste,Top*%
%TF.FilePolarity,Positive*%
%FSLAX46Y46*%
G04 Gerber Fmt 4.6, Leading zero omitted, Abs format (unit mm)*
G04 Created by KiCad (PCBNEW 7.0.2) date 2023-11-16 12:36:53*
%MOMM*%
%LPD*%
G01*
G04 APERTURE LIST*
G04 Aperture macros list*
%AMRoundRect*
0 Rectangle with rounded corners*
0 $1 Rounding radius*
0 $2 $3 $4 $5 $6 $7 $8 $9 X,Y pos of 4 corners*
0 Add a 4 corners polygon primitive as box body*
4,1,4,$2,$3,$4,$5,$6,$7,$8,$9,$2,$3,0*
0 Add four circle primitives for the rounded corners*
1,1,$1+$1,$2,$3*
1,1,$1+$1,$4,$5*
1,1,$1+$1,$6,$7*
1,1,$1+$1,$8,$9*
0 Add four rect primitives between the rounded corners*
20,1,$1+$1,$2,$3,$4,$5,0*
20,1,$1+$1,$4,$5,$6,$7,0*
20,1,$1+$1,$6,$7,$8,$9,0*
20,1,$1+$1,$8,$9,$2,$3,0*%
G04 Aperture macros list end*
%ADD10RoundRect,0.249999X-0.425001X0.450001X-0.425001X-0.450001X0.425001X-0.450001X0.425001X0.450001X0*%
%ADD11R,0.600000X1.900000*%
%ADD12R,2.100000X2.800000*%
%ADD13RoundRect,0.249999X-0.700001X0.275001X-0.700001X-0.275001X0.700001X-0.275001X0.700001X0.275001X0*%
%ADD14R,1.570000X0.410000*%
%ADD15R,0.590000X1.210000*%
%ADD16R,1.473200X0.355600*%
%ADD17RoundRect,0.249999X-0.650001X0.325001X-0.650001X-0.325001X0.650001X-0.325001X0.650001X0.325001X0*%
%ADD18RoundRect,0.249998X0.625002X-0.312502X0.625002X0.312502X-0.625002X0.312502X-0.625002X-0.312502X0*%
%ADD19RoundRect,0.249998X-0.312502X-0.625002X0.312502X-0.625002X0.312502X0.625002X-0.312502X0.625002X0*%
%ADD20RoundRect,0.249998X0.312502X0.625002X-0.312502X0.625002X-0.312502X-0.625002X0.312502X-0.625002X0*%
%ADD21R,1.411199X0.364800*%
%ADD22RoundRect,0.249999X0.700001X-0.275001X0.700001X0.275001X-0.700001X0.275001X-0.700001X-0.275001X0*%
%ADD23RoundRect,0.249999X0.650001X-0.325001X0.650001X0.325001X-0.650001X0.325001X-0.650001X-0.325001X0*%
%ADD24RoundRect,0.249999X0.425001X-0.450001X0.425001X0.450001X-0.425001X0.450001X-0.425001X-0.450001X0*%
%ADD25RoundRect,0.250000X-0.375000X-0.625000X0.375000X-0.625000X0.375000X0.625000X-0.375000X0.625000X0*%
%ADD26RoundRect,0.250000X0.700000X-0.275000X0.700000X0.275000X-0.700000X0.275000X-0.700000X-0.275000X0*%
G04 APERTURE END LIST*
D10*
%TO.C,CT5*%
X71475000Y36825000D03*
X71475000Y34125000D03*
%TD*%
%TO.C,CT6*%
X63075000Y58775000D03*
X63075000Y56075000D03*
%TD*%
D11*
%TO.C,J1*%
X124076000Y4225000D03*
X125076000Y4225000D03*
X126076000Y4225000D03*
X127076000Y4225000D03*
X128076000Y4225000D03*
X129076000Y4225000D03*
X130076000Y4225000D03*
X131076000Y4225000D03*
X132076000Y4225000D03*
X133076000Y4225000D03*
X134076000Y4225000D03*
X135076000Y4225000D03*
X136076000Y4225000D03*
X137076000Y4225000D03*
X138076000Y4225000D03*
X139076000Y4225000D03*
X140076000Y4225000D03*
X141076000Y4225000D03*
X142076000Y4225000D03*
X143076000Y4225000D03*
X144076000Y4225000D03*
X145076000Y4225000D03*
X146076000Y4225000D03*
X147076000Y4225000D03*
X148076000Y4225000D03*
X149076000Y4225000D03*
X150076000Y4225000D03*
X151076000Y4225000D03*
D12*
X154226000Y1875000D03*
X120926000Y1875000D03*
%TD*%
D11*
%TO.C,J2*%
X35501000Y4225000D03*
X36501000Y4225000D03*
X37501000Y4225000D03*
X38501000Y4225000D03*
X39501000Y4225000D03*
X40501000Y4225000D03*
X41501000Y4225000D03*
X42501000Y4225000D03*
X43501000Y4225000D03*
X44501000Y4225000D03*
X45501000Y4225000D03*
X46501000Y4225000D03*
X47501000Y4225000D03*
X48501000Y4225000D03*
X49501000Y4225000D03*
X50501000Y4225000D03*
X51501000Y4225000D03*
X52501000Y4225000D03*
X53501000Y4225000D03*
X54501000Y4225000D03*
X55501000Y4225000D03*
X56501000Y4225000D03*
X57501000Y4225000D03*
X58501000Y4225000D03*
X59501000Y4225000D03*
X60501000Y4225000D03*
X61501000Y4225000D03*
X62501000Y4225000D03*
D12*
X65651000Y1875000D03*
X32351000Y1875000D03*
%TD*%
D11*
%TO.C,J3*%
X75074000Y4225000D03*
X76074000Y4225000D03*
X77074000Y4225000D03*
X78074000Y4225000D03*
X79074000Y4225000D03*
X80074000Y4225000D03*
X81074000Y4225000D03*
X82074000Y4225000D03*
X83074000Y4225000D03*
X84074000Y4225000D03*
X85074000Y4225000D03*
X86074000Y4225000D03*
X87074000Y4225000D03*
X88074000Y4225000D03*
X89074000Y4225000D03*
X90074000Y4225000D03*
X91074000Y4225000D03*
X92074000Y4225000D03*
X93074000Y4225000D03*
X94074000Y4225000D03*
X95074000Y4225000D03*
X96074000Y4225000D03*
X97074000Y4225000D03*
X98074000Y4225000D03*
X99074000Y4225000D03*
X100074000Y4225000D03*
X101074000Y4225000D03*
X102074000Y4225000D03*
D12*
X105224000Y1875000D03*
X71924000Y1875000D03*
%TD*%
D11*
%TO.C,J4*%
X-13500000Y4225000D03*
X-12500000Y4225000D03*
X-11500000Y4225000D03*
X-10500000Y4225000D03*
X-9500000Y4225000D03*
X-8500000Y4225000D03*
X-7500000Y4225000D03*
X-6500000Y4225000D03*
X-5500000Y4225000D03*
X-4500000Y4225000D03*
X-3500000Y4225000D03*
X-2500000Y4225000D03*
X-1500000Y4225000D03*
X-500000Y4225000D03*
X500000Y4225000D03*
X1500000Y4225000D03*
X2500000Y4225000D03*
X3500000Y4225000D03*
X4500000Y4225000D03*
X5500000Y4225000D03*
X6500000Y4225000D03*
X7500000Y4225000D03*
X8500000Y4225000D03*
X9500000Y4225000D03*
X10500000Y4225000D03*
X11500000Y4225000D03*
X12500000Y4225000D03*
X13500000Y4225000D03*
D12*
X16650000Y1875000D03*
X-16650000Y1875000D03*
%TD*%
D13*
%TO.C,L6*%
X74300000Y37025000D03*
X74300000Y33875000D03*
%TD*%
D14*
%TO.C,U15*%
X41447600Y10979000D03*
X41447600Y11629000D03*
X41447600Y12279000D03*
X41447600Y12929000D03*
X41447600Y13579000D03*
X41447600Y14229000D03*
X41447600Y14879000D03*
X41447600Y15529000D03*
X35707600Y15529000D03*
X35707600Y14879000D03*
X35707600Y14229000D03*
X35707600Y13579000D03*
X35707600Y12929000D03*
X35707600Y12279000D03*
X35707600Y11629000D03*
X35707600Y10979000D03*
%TD*%
%TO.C,U16*%
X51447600Y10979000D03*
X51447600Y11629000D03*
X51447600Y12279000D03*
X51447600Y12929000D03*
X51447600Y13579000D03*
X51447600Y14229000D03*
X51447600Y14879000D03*
X51447600Y15529000D03*
X45707600Y15529000D03*
X45707600Y14879000D03*
X45707600Y14229000D03*
X45707600Y13579000D03*
X45707600Y12929000D03*
X45707600Y12279000D03*
X45707600Y11629000D03*
X45707600Y10979000D03*
%TD*%
%TO.C,U17*%
X61447600Y10979000D03*
X61447600Y11629000D03*
X61447600Y12279000D03*
X61447600Y12929000D03*
X61447600Y13579000D03*
X61447600Y14229000D03*
X61447600Y14879000D03*
X61447600Y15529000D03*
X55707600Y15529000D03*
X55707600Y14879000D03*
X55707600Y14229000D03*
X55707600Y13579000D03*
X55707600Y12929000D03*
X55707600Y12279000D03*
X55707600Y11629000D03*
X55707600Y10979000D03*
%TD*%
%TO.C,U18*%
X71447600Y10979000D03*
X71447600Y11629000D03*
X71447600Y12279000D03*
X71447600Y12929000D03*
X71447600Y13579000D03*
X71447600Y14229000D03*
X71447600Y14879000D03*
X71447600Y15529000D03*
X65707600Y15529000D03*
X65707600Y14879000D03*
X65707600Y14229000D03*
X65707600Y13579000D03*
X65707600Y12929000D03*
X65707600Y12279000D03*
X65707600Y11629000D03*
X65707600Y10979000D03*
%TD*%
%TO.C,U19*%
X81447600Y10979000D03*
X81447600Y11629000D03*
X81447600Y12279000D03*
X81447600Y12929000D03*
X81447600Y13579000D03*
X81447600Y14229000D03*
X81447600Y14879000D03*
X81447600Y15529000D03*
X75707600Y15529000D03*
X75707600Y14879000D03*
X75707600Y14229000D03*
X75707600Y13579000D03*
X75707600Y12929000D03*
X75707600Y12279000D03*
X75707600Y11629000D03*
X75707600Y10979000D03*
%TD*%
%TO.C,U20*%
X91447600Y10979000D03*
X91447600Y11629000D03*
X91447600Y12279000D03*
X91447600Y12929000D03*
X91447600Y13579000D03*
X91447600Y14229000D03*
X91447600Y14879000D03*
X91447600Y15529000D03*
X85707600Y15529000D03*
X85707600Y14879000D03*
X85707600Y14229000D03*
X85707600Y13579000D03*
X85707600Y12929000D03*
X85707600Y12279000D03*
X85707600Y11629000D03*
X85707600Y10979000D03*
%TD*%
%TO.C,U21*%
X101447600Y10979000D03*
X101447600Y11629000D03*
X101447600Y12279000D03*
X101447600Y12929000D03*
X101447600Y13579000D03*
X101447600Y14229000D03*
X101447600Y14879000D03*
X101447600Y15529000D03*
X95707600Y15529000D03*
X95707600Y14879000D03*
X95707600Y14229000D03*
X95707600Y13579000D03*
X95707600Y12929000D03*
X95707600Y12279000D03*
X95707600Y11629000D03*
X95707600Y10979000D03*
%TD*%
%TO.C,U22*%
X70870000Y25309400D03*
X70870000Y25959400D03*
X70870000Y26609400D03*
X70870000Y27259400D03*
X70870000Y27909400D03*
X70870000Y28559400D03*
X70870000Y29209400D03*
X70870000Y29859400D03*
X65130000Y29859400D03*
X65130000Y29209400D03*
X65130000Y28559400D03*
X65130000Y27909400D03*
X65130000Y27259400D03*
X65130000Y26609400D03*
X65130000Y25959400D03*
X65130000Y25309400D03*
%TD*%
D15*
%TO.C,U25*%
X67050000Y34203400D03*
X68000000Y34203400D03*
X68950000Y34203400D03*
X68950000Y36713400D03*
X67050000Y36713400D03*
%TD*%
D16*
%TO.C,U1*%
X44421200Y31838900D03*
X44421200Y32499300D03*
X44421200Y33134300D03*
X44421200Y33794700D03*
X44421200Y34455100D03*
X44421200Y35090100D03*
X44421200Y35750500D03*
X38782400Y35750500D03*
X38782400Y35090100D03*
X38782400Y34455100D03*
X38782400Y33794700D03*
X38782400Y33134300D03*
X38782400Y32499300D03*
X38782400Y31838900D03*
%TD*%
%TO.C,U2*%
X31421200Y31838900D03*
X31421200Y32499300D03*
X31421200Y33134300D03*
X31421200Y33794700D03*
X31421200Y34455100D03*
X31421200Y35090100D03*
X31421200Y35750500D03*
X25782400Y35750500D03*
X25782400Y35090100D03*
X25782400Y34455100D03*
X25782400Y33794700D03*
X25782400Y33134300D03*
X25782400Y32499300D03*
X25782400Y31838900D03*
%TD*%
%TO.C,U3*%
X18421200Y31838900D03*
X18421200Y32499300D03*
X18421200Y33134300D03*
X18421200Y33794700D03*
X18421200Y34455100D03*
X18421200Y35090100D03*
X18421200Y35750500D03*
X12782400Y35750500D03*
X12782400Y35090100D03*
X12782400Y34455100D03*
X12782400Y33794700D03*
X12782400Y33134300D03*
X12782400Y32499300D03*
X12782400Y31838900D03*
%TD*%
%TO.C,U4*%
X5421200Y31838900D03*
X5421200Y32499300D03*
X5421200Y33134300D03*
X5421200Y33794700D03*
X5421200Y34455100D03*
X5421200Y35090100D03*
X5421200Y35750500D03*
X-217600Y35750500D03*
X-217600Y35090100D03*
X-217600Y34455100D03*
X-217600Y33794700D03*
X-217600Y33134300D03*
X-217600Y32499300D03*
X-217600Y31838900D03*
%TD*%
%TO.C,U5*%
X-7578800Y31838900D03*
X-7578800Y32499300D03*
X-7578800Y33134300D03*
X-7578800Y33794700D03*
X-7578800Y34455100D03*
X-7578800Y35090100D03*
X-7578800Y35750500D03*
X-13217600Y35750500D03*
X-13217600Y35090100D03*
X-13217600Y34455100D03*
X-13217600Y33794700D03*
X-13217600Y33134300D03*
X-13217600Y32499300D03*
X-13217600Y31838900D03*
%TD*%
%TO.C,U6*%
X-20578800Y31838900D03*
X-20578800Y32499300D03*
X-20578800Y33134300D03*
X-20578800Y33794700D03*
X-20578800Y34455100D03*
X-20578800Y35090100D03*
X-20578800Y35750500D03*
X-26217600Y35750500D03*
X-26217600Y35090100D03*
X-26217600Y34455100D03*
X-26217600Y33794700D03*
X-26217600Y33134300D03*
X-26217600Y32499300D03*
X-26217600Y31838900D03*
%TD*%
%TO.C,U8*%
X91782400Y35750500D03*
X91782400Y35090100D03*
X91782400Y34455100D03*
X91782400Y33794700D03*
X91782400Y33134300D03*
X91782400Y32499300D03*
X91782400Y31838900D03*
X97421200Y31838900D03*
X97421200Y32499300D03*
X97421200Y33134300D03*
X97421200Y33794700D03*
X97421200Y34455100D03*
X97421200Y35090100D03*
X97421200Y35750500D03*
%TD*%
%TO.C,U9*%
X104782400Y35750500D03*
X104782400Y35090100D03*
X104782400Y34455100D03*
X104782400Y33794700D03*
X104782400Y33134300D03*
X104782400Y32499300D03*
X104782400Y31838900D03*
X110421200Y31838900D03*
X110421200Y32499300D03*
X110421200Y33134300D03*
X110421200Y33794700D03*
X110421200Y34455100D03*
X110421200Y35090100D03*
X110421200Y35750500D03*
%TD*%
%TO.C,U10*%
X117782400Y35750500D03*
X117782400Y35090100D03*
X117782400Y34455100D03*
X117782400Y33794700D03*
X117782400Y33134300D03*
X117782400Y32499300D03*
X117782400Y31838900D03*
X123421200Y31838900D03*
X123421200Y32499300D03*
X123421200Y33134300D03*
X123421200Y33794700D03*
X123421200Y34455100D03*
X123421200Y35090100D03*
X123421200Y35750500D03*
%TD*%
%TO.C,U11*%
X130782400Y35750500D03*
X130782400Y35090100D03*
X130782400Y34455100D03*
X130782400Y33794700D03*
X130782400Y33134300D03*
X130782400Y32499300D03*
X130782400Y31838900D03*
X136421200Y31838900D03*
X136421200Y32499300D03*
X136421200Y33134300D03*
X136421200Y33794700D03*
X136421200Y34455100D03*
X136421200Y35090100D03*
X136421200Y35750500D03*
%TD*%
%TO.C,U12*%
X143782400Y35750500D03*
X143782400Y35090100D03*
X143782400Y34455100D03*
X143782400Y33794700D03*
X143782400Y33134300D03*
X143782400Y32499300D03*
X143782400Y31838900D03*
X149421200Y31838900D03*
X149421200Y32499300D03*
X149421200Y33134300D03*
X149421200Y33794700D03*
X149421200Y34455100D03*
X149421200Y35090100D03*
X149421200Y35750500D03*
%TD*%
%TO.C,U13*%
X156782400Y35750500D03*
X156782400Y35090100D03*
X156782400Y34455100D03*
X156782400Y33794700D03*
X156782400Y33134300D03*
X156782400Y32499300D03*
X156782400Y31838900D03*
X162421200Y31838900D03*
X162421200Y32499300D03*
X162421200Y33134300D03*
X162421200Y33794700D03*
X162421200Y34455100D03*
X162421200Y35090100D03*
X162421200Y35750500D03*
%TD*%
D14*
%TO.C,U29*%
X30005000Y48375000D03*
X30005000Y47725000D03*
X30005000Y47075000D03*
X30005000Y46425000D03*
X30005000Y45775000D03*
X30005000Y45125000D03*
X30005000Y44475000D03*
X30005000Y43825000D03*
X35745000Y43825000D03*
X35745000Y44475000D03*
X35745000Y45125000D03*
X35745000Y45775000D03*
X35745000Y46425000D03*
X35745000Y47075000D03*
X35745000Y47725000D03*
X35745000Y48375000D03*
%TD*%
%TO.C,U30*%
X10005000Y48375000D03*
X10005000Y47725000D03*
X10005000Y47075000D03*
X10005000Y46425000D03*
X10005000Y45775000D03*
X10005000Y45125000D03*
X10005000Y44475000D03*
X10005000Y43825000D03*
X15745000Y43825000D03*
X15745000Y44475000D03*
X15745000Y45125000D03*
X15745000Y45775000D03*
X15745000Y46425000D03*
X15745000Y47075000D03*
X15745000Y47725000D03*
X15745000Y48375000D03*
%TD*%
%TO.C,U31*%
X-9995000Y48375000D03*
X-9995000Y47725000D03*
X-9995000Y47075000D03*
X-9995000Y46425000D03*
X-9995000Y45775000D03*
X-9995000Y45125000D03*
X-9995000Y44475000D03*
X-9995000Y43825000D03*
X-4255000Y43825000D03*
X-4255000Y44475000D03*
X-4255000Y45125000D03*
X-4255000Y45775000D03*
X-4255000Y46425000D03*
X-4255000Y47075000D03*
X-4255000Y47725000D03*
X-4255000Y48375000D03*
%TD*%
%TO.C,U32*%
X-29995000Y48375000D03*
X-29995000Y47725000D03*
X-29995000Y47075000D03*
X-29995000Y46425000D03*
X-29995000Y45775000D03*
X-29995000Y45125000D03*
X-29995000Y44475000D03*
X-29995000Y43825000D03*
X-24255000Y43825000D03*
X-24255000Y44475000D03*
X-24255000Y45125000D03*
X-24255000Y45775000D03*
X-24255000Y46425000D03*
X-24255000Y47075000D03*
X-24255000Y47725000D03*
X-24255000Y48375000D03*
%TD*%
%TO.C,U33*%
X103005000Y48375000D03*
X103005000Y47725000D03*
X103005000Y47075000D03*
X103005000Y46425000D03*
X103005000Y45775000D03*
X103005000Y45125000D03*
X103005000Y44475000D03*
X103005000Y43825000D03*
X108745000Y43825000D03*
X108745000Y44475000D03*
X108745000Y45125000D03*
X108745000Y45775000D03*
X108745000Y46425000D03*
X108745000Y47075000D03*
X108745000Y47725000D03*
X108745000Y48375000D03*
%TD*%
%TO.C,U35*%
X143005000Y48375000D03*
X143005000Y47725000D03*
X143005000Y47075000D03*
X143005000Y46425000D03*
X143005000Y45775000D03*
X143005000Y45125000D03*
X143005000Y44475000D03*
X143005000Y43825000D03*
X148745000Y43825000D03*
X148745000Y44475000D03*
X148745000Y45125000D03*
X148745000Y45775000D03*
X148745000Y46425000D03*
X148745000Y47075000D03*
X148745000Y47725000D03*
X148745000Y48375000D03*
%TD*%
D17*
%TO.C,DC51*%
X77575000Y36950000D03*
X77575000Y34000000D03*
%TD*%
%TO.C,DC45*%
X65950000Y58925000D03*
X65950000Y55975000D03*
%TD*%
D18*
%TO.C,R57*%
X64450000Y34037500D03*
X64450000Y36962500D03*
%TD*%
D19*
%TO.C,R2*%
X43531340Y38125400D03*
X46456340Y38125400D03*
%TD*%
D20*
%TO.C,R3*%
X40299380Y38125400D03*
X37374380Y38125400D03*
%TD*%
D19*
%TO.C,R6*%
X30531340Y38125400D03*
X33456340Y38125400D03*
%TD*%
D20*
%TO.C,R8*%
X27299380Y26781760D03*
X24374380Y26781760D03*
%TD*%
D19*
%TO.C,R10*%
X17531340Y38125400D03*
X20456340Y38125400D03*
%TD*%
D20*
%TO.C,R11*%
X14299380Y38125400D03*
X11374380Y38125400D03*
%TD*%
%TO.C,R12*%
X14299380Y26781760D03*
X11374380Y26781760D03*
%TD*%
D19*
%TO.C,R13*%
X4531340Y26781760D03*
X7456340Y26781760D03*
%TD*%
D20*
%TO.C,R15*%
X1299380Y38125400D03*
X-1625620Y38125400D03*
%TD*%
%TO.C,R16*%
X1299380Y26781760D03*
X-1625620Y26781760D03*
%TD*%
D19*
%TO.C,R17*%
X-8468660Y26781760D03*
X-5543660Y26781760D03*
%TD*%
%TO.C,R18*%
X-8468660Y38125400D03*
X-5543660Y38125400D03*
%TD*%
D20*
%TO.C,R19*%
X-11700620Y38125400D03*
X-14625620Y38125400D03*
%TD*%
%TO.C,R20*%
X-11700620Y26781760D03*
X-14625620Y26781760D03*
%TD*%
D19*
%TO.C,R21*%
X-21468660Y26781760D03*
X-18543660Y26781760D03*
%TD*%
%TO.C,R22*%
X-21468660Y38125400D03*
X-18543660Y38125400D03*
%TD*%
D20*
%TO.C,R23*%
X-24700620Y38125400D03*
X-27625620Y38125400D03*
%TD*%
%TO.C,R24*%
X-24700620Y26781760D03*
X-27625620Y26781760D03*
%TD*%
D19*
%TO.C,R25*%
X-34468660Y26781760D03*
X-31543660Y26781760D03*
%TD*%
%TO.C,R26*%
X-34468660Y38125400D03*
X-31543660Y38125400D03*
%TD*%
D20*
%TO.C,R27*%
X-37700620Y38125400D03*
X-40625620Y38125400D03*
%TD*%
%TO.C,R28*%
X-37700620Y26781760D03*
X-40625620Y26781760D03*
%TD*%
%TO.C,R29*%
X93299380Y38125400D03*
X90374380Y38125400D03*
%TD*%
%TO.C,R30*%
X93299380Y26781760D03*
X90374380Y26781760D03*
%TD*%
D19*
%TO.C,R31*%
X96531340Y26781760D03*
X99456340Y26781760D03*
%TD*%
%TO.C,R32*%
X96531340Y38125400D03*
X99456340Y38125400D03*
%TD*%
D20*
%TO.C,R33*%
X106299380Y38125400D03*
X103374380Y38125400D03*
%TD*%
%TO.C,R34*%
X106299380Y26781760D03*
X103374380Y26781760D03*
%TD*%
D19*
%TO.C,R35*%
X109531340Y26781760D03*
X112456340Y26781760D03*
%TD*%
%TO.C,R36*%
X109531340Y38125400D03*
X112456340Y38125400D03*
%TD*%
D20*
%TO.C,R37*%
X119299380Y38125400D03*
X116374380Y38125400D03*
%TD*%
%TO.C,R38*%
X119299380Y26781760D03*
X116374380Y26781760D03*
%TD*%
D19*
%TO.C,R39*%
X122531340Y26781760D03*
X125456340Y26781760D03*
%TD*%
%TO.C,R40*%
X122531340Y38125400D03*
X125456340Y38125400D03*
%TD*%
D20*
%TO.C,R41*%
X132299380Y38125400D03*
X129374380Y38125400D03*
%TD*%
%TO.C,R42*%
X132299380Y26781760D03*
X129374380Y26781760D03*
%TD*%
D19*
%TO.C,R43*%
X135531340Y26781760D03*
X138456340Y26781760D03*
%TD*%
%TO.C,R44*%
X135531340Y38125400D03*
X138456340Y38125400D03*
%TD*%
D20*
%TO.C,R45*%
X145299380Y38125400D03*
X142374380Y38125400D03*
%TD*%
%TO.C,R46*%
X145299380Y26781760D03*
X142374380Y26781760D03*
%TD*%
D19*
%TO.C,R47*%
X148531340Y26781760D03*
X151456340Y26781760D03*
%TD*%
%TO.C,R48*%
X148531340Y38125400D03*
X151456340Y38125400D03*
%TD*%
D20*
%TO.C,R49*%
X158299380Y38125400D03*
X155374380Y38125400D03*
%TD*%
%TO.C,R50*%
X158299380Y26781760D03*
X155374380Y26781760D03*
%TD*%
D19*
%TO.C,R51*%
X161531340Y26781760D03*
X164456340Y26781760D03*
%TD*%
%TO.C,R52*%
X161531340Y38125400D03*
X164456340Y38125400D03*
%TD*%
D20*
%TO.C,R53*%
X171299380Y38125400D03*
X168374380Y38125400D03*
%TD*%
%TO.C,R54*%
X171299380Y26781760D03*
X168374380Y26781760D03*
%TD*%
D19*
%TO.C,R55*%
X174531340Y26781760D03*
X177456340Y26781760D03*
%TD*%
%TO.C,R56*%
X174531340Y38125400D03*
X177456340Y38125400D03*
%TD*%
D18*
%TO.C,R58*%
X76850000Y61562500D03*
X76850000Y64487500D03*
%TD*%
%TO.C,R60*%
X79500000Y61537500D03*
X79500000Y64462500D03*
%TD*%
D16*
%TO.C,U14*%
X169782400Y35750500D03*
X169782400Y35090100D03*
X169782400Y34455100D03*
X169782400Y33794700D03*
X169782400Y33134300D03*
X169782400Y32499300D03*
X169782400Y31838900D03*
X175421200Y31838900D03*
X175421200Y32499300D03*
X175421200Y33134300D03*
X175421200Y33794700D03*
X175421200Y34455100D03*
X175421200Y35090100D03*
X175421200Y35750500D03*
%TD*%
D19*
%TO.C,R14*%
X4531340Y38125400D03*
X7456340Y38125400D03*
%TD*%
D20*
%TO.C,R4*%
X40299380Y26781760D03*
X37374380Y26781760D03*
%TD*%
D19*
%TO.C,R5*%
X30531340Y26781760D03*
X33456340Y26781760D03*
%TD*%
D20*
%TO.C,R7*%
X27299380Y38125400D03*
X24374380Y38125400D03*
%TD*%
D19*
%TO.C,R1*%
X43531340Y26781760D03*
X46456340Y26781760D03*
%TD*%
%TO.C,R9*%
X17531340Y26781760D03*
X20456340Y26781760D03*
%TD*%
D16*
%TO.C,U7*%
X-33578800Y31838900D03*
X-33578800Y32499300D03*
X-33578800Y33134300D03*
X-33578800Y33794700D03*
X-33578800Y34455100D03*
X-33578800Y35090100D03*
X-33578800Y35750500D03*
X-39217600Y35750500D03*
X-39217600Y35090100D03*
X-39217600Y34455100D03*
X-39217600Y33794700D03*
X-39217600Y33134300D03*
X-39217600Y32499300D03*
X-39217600Y31838900D03*
%TD*%
D14*
%TO.C,U34*%
X123005000Y48375000D03*
X123005000Y47725000D03*
X123005000Y47075000D03*
X123005000Y46425000D03*
X123005000Y45775000D03*
X123005000Y45125000D03*
X123005000Y44475000D03*
X123005000Y43825000D03*
X128745000Y43825000D03*
X128745000Y44475000D03*
X128745000Y45125000D03*
X128745000Y45775000D03*
X128745000Y46425000D03*
X128745000Y47075000D03*
X128745000Y47725000D03*
X128745000Y48375000D03*
%TD*%
D20*
%TO.C,R59*%
X70212500Y64225000D03*
X67287500Y64225000D03*
%TD*%
D18*
%TO.C,R61*%
X38875000Y55137500D03*
X38875000Y58062500D03*
%TD*%
%TO.C,R62*%
X85875000Y55137500D03*
X85875000Y58062500D03*
%TD*%
%TO.C,R63*%
X38875000Y49637500D03*
X38875000Y52562500D03*
%TD*%
%TO.C,R64*%
X85875000Y49637500D03*
X85875000Y52562500D03*
%TD*%
%TO.C,R67*%
X52875000Y49637500D03*
X52875000Y52562500D03*
%TD*%
%TO.C,R68*%
X99875000Y49637500D03*
X99875000Y52562500D03*
%TD*%
%TO.C,R71*%
X52875000Y55137500D03*
X52875000Y58062500D03*
%TD*%
%TO.C,R72*%
X99875000Y55137500D03*
X99875000Y58062500D03*
%TD*%
D10*
%TO.C,CT7*%
X81500000Y58575000D03*
X81500000Y55875000D03*
%TD*%
D21*
%TO.C,U28*%
X71030200Y59799999D03*
X71030200Y59150001D03*
X71030200Y58499999D03*
X71030200Y57850001D03*
X71030200Y57200002D03*
X71030200Y56550001D03*
X71030200Y55900002D03*
X71030200Y55250001D03*
X76719800Y55250001D03*
X76719800Y55899999D03*
X76719800Y56550001D03*
X76719800Y57199999D03*
X76719800Y57849998D03*
X76719800Y58499999D03*
X76719800Y59149998D03*
X76719800Y59799999D03*
%TD*%
D16*
%TO.C,U27*%
X90055600Y55055800D03*
X90055600Y54395400D03*
X90055600Y53760400D03*
X90055600Y53100000D03*
X90055600Y52439600D03*
X90055600Y51804600D03*
X90055600Y51144200D03*
X95694400Y51144200D03*
X95694400Y51804600D03*
X95694400Y52439600D03*
X95694400Y53100000D03*
X95694400Y53760400D03*
X95694400Y54395400D03*
X95694400Y55055800D03*
%TD*%
%TO.C,U26*%
X43055600Y55055800D03*
X43055600Y54395400D03*
X43055600Y53760400D03*
X43055600Y53100000D03*
X43055600Y52439600D03*
X43055600Y51804600D03*
X43055600Y51144200D03*
X48694400Y51144200D03*
X48694400Y51804600D03*
X48694400Y52439600D03*
X48694400Y53100000D03*
X48694400Y53760400D03*
X48694400Y54395400D03*
X48694400Y55055800D03*
%TD*%
D22*
%TO.C,L1*%
X164160000Y66065000D03*
X164160000Y69215000D03*
%TD*%
D13*
%TO.C,L2*%
X161160000Y69215000D03*
X161160000Y66065000D03*
%TD*%
%TO.C,L4*%
X149860000Y69190000D03*
X149860000Y66040000D03*
%TD*%
%TO.C,L5*%
X152760000Y69165000D03*
X152760000Y66015000D03*
%TD*%
D23*
%TO.C,DC49*%
X141185000Y75665000D03*
X141185000Y78615000D03*
%TD*%
D24*
%TO.C,CT2*%
X138185000Y69790000D03*
X138185000Y72490000D03*
%TD*%
%TO.C,CT4*%
X123875000Y56500000D03*
X123875000Y59200000D03*
%TD*%
D10*
%TO.C,CT1*%
X138185000Y88490000D03*
X138185000Y85790000D03*
%TD*%
D24*
%TO.C,CT3*%
X138185000Y75790000D03*
X138185000Y78490000D03*
%TD*%
D23*
%TO.C,DC48*%
X141185000Y69665000D03*
X141185000Y72615000D03*
%TD*%
D17*
%TO.C,DC47*%
X141185000Y88615000D03*
X141185000Y85665000D03*
%TD*%
D20*
%TO.C,R85*%
X153597500Y74840000D03*
X150672500Y74840000D03*
%TD*%
D25*
%TO.C,D1*%
X150785000Y78815000D03*
X153585000Y78815000D03*
%TD*%
D26*
%TO.C,L3*%
X157480000Y66040000D03*
X157480000Y69190000D03*
%TD*%
M02*
